<svg id="Get-It-On-the-App-Store" xmlns="http://www.w3.org/2000/svg" width="214.254" height="71.619" viewBox="0 0 214.254 71.619">
  <g id="Group_67" data-name="Group 67">
    <g id="Group_65" data-name="Group 65">
      <path id="Path_35" data-name="Path 35" d="M197.193,0H17.072c-.657,0-1.305,0-1.961,0-.548,0-1.092.014-1.645.023A23.874,23.874,0,0,0,9.878.342a12.033,12.033,0,0,0-3.4,1.123,11.514,11.514,0,0,0-2.9,2.111,11.192,11.192,0,0,0-2.111,2.9A11.862,11.862,0,0,0,.347,9.885a23.376,23.376,0,0,0-.32,3.585c-.016.55-.018,1.1-.027,1.649V56.505c.009.555.011,1.094.027,1.651a23.332,23.332,0,0,0,.32,3.583A11.812,11.812,0,0,0,1.466,65.15a11.1,11.1,0,0,0,2.111,2.89,11.249,11.249,0,0,0,2.9,2.111,11.969,11.969,0,0,0,3.4,1.128,24.114,24.114,0,0,0,3.588.317c.553.013,1.1.02,1.645.02.655,0,1.3,0,1.961,0H197.193c.643,0,1.3,0,1.941,0,.544,0,1.1-.007,1.651-.02a23.552,23.552,0,0,0,3.581-.317,12.181,12.181,0,0,0,3.416-1.128,11.239,11.239,0,0,0,2.9-2.111,11.5,11.5,0,0,0,2.116-2.89,11.863,11.863,0,0,0,1.108-3.411,24.279,24.279,0,0,0,.331-3.583c.007-.557.007-1.1.007-1.651.014-.652.014-1.3.014-1.959V17.074c0-.655,0-1.305-.014-1.955,0-.548,0-1.1-.007-1.649a24.3,24.3,0,0,0-.331-3.585,11.9,11.9,0,0,0-1.108-3.407,11.6,11.6,0,0,0-5.011-5.013A12.169,12.169,0,0,0,204.365.342a23.3,23.3,0,0,0-3.581-.315c-.546-.009-1.107-.02-1.651-.023-.645,0-1.3,0-1.941,0Z" fill="#a6a6a6"/>
      <path id="Path_36" data-name="Path 36" d="M15.12,70.052c-.546,0-1.078-.007-1.619-.02a22.561,22.561,0,0,1-3.348-.292,10.518,10.518,0,0,1-2.965-.981,9.667,9.667,0,0,1-2.5-1.819,9.557,9.557,0,0,1-1.828-2.5,10.252,10.252,0,0,1-.972-2.967,22.213,22.213,0,0,1-.3-3.357c-.013-.378-.027-1.635-.027-1.635V15.119s.016-1.237.027-1.6a22.12,22.12,0,0,1,.3-3.352,10.312,10.312,0,0,1,.974-2.976,9.557,9.557,0,0,1,1.817-2.5,9.992,9.992,0,0,1,2.51-1.832,10.469,10.469,0,0,1,2.96-.974,22.727,22.727,0,0,1,3.359-.294l1.615-.021h184l1.635.023a22.017,22.017,0,0,1,3.327.29,10.671,10.671,0,0,1,2.992.981A10.008,10.008,0,0,1,211.4,7.194a10.3,10.3,0,0,1,.958,2.952,23.242,23.242,0,0,1,.312,3.379c.005.507.005,1.053.005,1.594.014.671.014,1.311.014,1.955V54.547c0,.65,0,1.286-.014,1.925,0,.582,0,1.115-.007,1.665a22.655,22.655,0,0,1-.306,3.318,10.225,10.225,0,0,1-.967,2.99,9.791,9.791,0,0,1-1.817,2.482,9.661,9.661,0,0,1-2.507,1.83,10.456,10.456,0,0,1-2.986.985,22.3,22.3,0,0,1-3.346.292c-.525.013-1.072.02-1.606.02l-1.941,0Z"/>
    </g>
    <g id="_Group_">
      <g id="_Group_2_">
        <g id="_Group_3_">
          <path id="_Path_" d="M44.348,36.348a8.869,8.869,0,0,1,4.218-7.434,9.076,9.076,0,0,0-7.146-3.864c-3.006-.315-5.921,1.8-7.454,1.8-1.561,0-3.919-1.769-6.46-1.715A9.521,9.521,0,0,0,19.5,30.019c-3.463,5.994-.879,14.805,2.437,19.652,1.66,2.372,3.6,5.022,6.138,4.929,2.483-.1,3.411-1.585,6.408-1.585,2.97,0,3.841,1.585,6.43,1.525,2.666-.045,4.344-2.385,5.946-4.781a19.622,19.622,0,0,0,2.718-5.536A8.577,8.577,0,0,1,44.348,36.348Z" fill="#fff"/>
          <path id="_Path_2_" d="M39.456,21.863a8.729,8.729,0,0,0,2-6.251,8.873,8.873,0,0,0-5.744,2.972A8.31,8.31,0,0,0,33.661,24.6,7.346,7.346,0,0,0,39.456,21.863Z" fill="#fff"/>
        </g>
      </g>
      <g id="Group_66" data-name="Group 66">
        <path id="Path_37" data-name="Path 37" d="M75.74,48.593H67.266L65.23,54.6H61.64l8.028-22.234H73.4L81.425,54.6H77.774Zm-7.6-2.773h6.718l-3.312-9.753h-.091Z" fill="#fff"/>
        <path id="Path_38" data-name="Path 38" d="M98.762,46.5c0,5.037-2.7,8.274-6.766,8.274a5.5,5.5,0,0,1-5.1-2.836H86.82v8.028H83.491V38.391h3.221v2.7h.061a5.758,5.758,0,0,1,5.162-2.865C96.049,38.223,98.762,41.474,98.762,46.5Zm-3.42,0c0-3.282-1.7-5.439-4.285-5.439-2.542,0-4.252,2.2-4.252,5.439,0,3.266,1.71,5.454,4.252,5.454C93.645,51.952,95.342,49.809,95.342,46.5Z" fill="#fff"/>
        <path id="Path_39" data-name="Path 39" d="M116.6,46.5c0,5.037-2.7,8.274-6.766,8.274a5.5,5.5,0,0,1-5.1-2.836h-.077v8.028h-3.328V38.391h3.221v2.7h.061a5.758,5.758,0,0,1,5.162-2.865C113.891,38.223,116.6,41.474,116.6,46.5Zm-3.422,0c0-3.282-1.7-5.439-4.283-5.439-2.542,0-4.252,2.2-4.252,5.439,0,3.266,1.71,5.454,4.252,5.454,2.587,0,4.283-2.143,4.283-5.454Z" fill="#fff"/>
        <path id="Path_40" data-name="Path 40" d="M128.394,48.407c.247,2.206,2.388,3.653,5.316,3.653,2.806,0,4.824-1.447,4.824-3.436,0-1.726-1.218-2.759-4.1-3.466l-2.883-.695c-4.082-.987-5.978-2.9-5.978-5.994,0-3.835,3.343-6.471,8.091-6.471,4.7,0,7.919,2.636,8.027,6.471h-3.359c-.2-2.218-2.034-3.558-4.716-3.558s-4.514,1.355-4.514,3.327c0,1.572,1.171,2.5,4.037,3.2l2.449.6c4.562,1.08,6.456,2.911,6.456,6.165,0,4.159-3.312,6.764-8.582,6.764-4.931,0-8.261-2.544-8.476-6.566Z" fill="#fff"/>
        <path id="Path_41" data-name="Path 41" d="M149.228,34.556v3.835h3.083v2.636h-3.083v8.936c0,1.389.618,2.036,1.973,2.036a10.659,10.659,0,0,0,1.094-.077v2.619a9.264,9.264,0,0,1-1.848.154c-3.282,0-4.562-1.234-4.562-4.378V41.027h-2.356V38.391h2.356V34.556Z" fill="#fff"/>
        <path id="Path_42" data-name="Path 42" d="M154.1,46.5c0-5.1,3-8.306,7.688-8.306,4.7,0,7.69,3.2,7.69,8.306s-2.974,8.3-7.69,8.3S154.1,51.612,154.1,46.5Zm11.987,0c0-3.5-1.6-5.565-4.3-5.565s-4.3,2.081-4.3,5.565c0,3.513,1.6,5.561,4.3,5.561s4.3-2.048,4.3-5.561Z" fill="#fff"/>
        <path id="Path_43" data-name="Path 43" d="M172.218,38.391h3.174V41.15h.077a3.875,3.875,0,0,1,3.9-2.927,5.094,5.094,0,0,1,1.141.124v3.112a4.689,4.689,0,0,0-1.5-.2c-.045,0-.091,0-.136,0a3.354,3.354,0,0,0-3.332,3.733V54.6h-3.327Z" fill="#fff"/>
        <path id="Path_44" data-name="Path 44" d="M195.848,49.841c-.448,2.942-3.312,4.961-6.979,4.961-4.716,0-7.643-3.158-7.643-8.227,0-5.085,2.944-8.383,7.5-8.383,4.485,0,7.305,3.081,7.305,8v1.141h-11.45v.2c-.011.124-.016.247-.016.372a4.243,4.243,0,0,0,4.222,4.222c.052,0,.1,0,.156,0a3.674,3.674,0,0,0,3.744-2.279ZM184.6,45h8.1c.005-.073.007-.145.007-.217a3.917,3.917,0,0,0-3.9-3.9l-.084,0H188.7a4.124,4.124,0,0,0-4.1,4.1V45Z" fill="#fff"/>
      </g>
    </g>
  </g>
  <g id="_Group_4_">
    <g id="Group_68" data-name="Group 68">
      <path id="Path_45" data-name="Path 45" d="M67.726,15.633c.113-.009.226-.013.338-.013a4.726,4.726,0,0,1,4.689,5.321c0,3.413-1.844,5.375-5.028,5.375H63.868V15.633Zm-2.2,9.173h2.014c.066,0,.132.005.2.005A3.373,3.373,0,0,0,71.1,21.452a3.207,3.207,0,0,0-.036-.489A3.269,3.269,0,0,0,71.1,20.5a3.384,3.384,0,0,0-3.368-3.368c-.063,0-.125,0-.186.005H65.527Z" fill="#fff"/>
      <path id="Path_46" data-name="Path 46" d="M74.628,22.281a3.5,3.5,0,0,1-.018-.363,3.819,3.819,0,1,1,7.638,0c0,.122-.005.244-.016.363.011.124.018.247.018.371a3.82,3.82,0,1,1-7.64,0A3.668,3.668,0,0,1,74.628,22.281Zm5.968,0c0-1.747-.786-2.77-2.163-2.77s-2.161,1.022-2.161,2.77.777,2.777,2.161,2.777S80.6,24.035,80.6,22.281Z" fill="#fff"/>
      <path id="Path_47" data-name="Path 47" d="M92.34,26.316H90.689l-1.665-5.939H88.9l-1.658,5.939H85.6L83.38,18.254H85l1.443,6.152h.12l1.658-6.152h1.525L91.4,24.406h.125l1.438-6.152h1.592Z" fill="#fff"/>
      <path id="Path_48" data-name="Path 48" d="M96.424,18.254h1.531v1.28h.118a2.419,2.419,0,0,1,2.406-1.436c.066-.005.131-.007.2-.007a2.636,2.636,0,0,1,2.623,2.621,2.765,2.765,0,0,1-.029.385v5.219h-1.592V21.5c0-1.3-.562-1.941-1.74-1.941l-.086,0A1.86,1.86,0,0,0,98,21.4a1.757,1.757,0,0,0,.011.2v4.718h-1.59Z" fill="#fff"/>
      <rect id="Rectangle_8" data-name="Rectangle 8" width="1.592" height="11.21" transform="translate(105.806 15.106)" fill="#fff"/>
      <path id="Path_49" data-name="Path 49" d="M109.609,22.281a3.5,3.5,0,0,1-.018-.363,3.82,3.82,0,0,1,7.64,0,3.5,3.5,0,0,1-.018.363,3.668,3.668,0,0,1,.018.371,3.82,3.82,0,1,1-7.64,0A3.668,3.668,0,0,1,109.609,22.281Zm5.968,0c0-1.747-.786-2.77-2.163-2.77s-2.161,1.022-2.161,2.77.777,2.777,2.161,2.777,2.163-1.022,2.163-2.777Z" fill="#fff"/>
      <path id="Path_50" data-name="Path 50" d="M118.889,24.035c0-1.45,1.08-2.288,3-2.406l2.183-.125v-.7c0-.85-.562-1.332-1.649-1.332-.89,0-1.5.326-1.681.9H119.2c.163-1.384,1.465-2.272,3.294-2.272,2.02,0,3.16,1.006,3.16,2.709v5.509h-1.531V25.183H124a2.718,2.718,0,0,1-2.421,1.266,2.384,2.384,0,0,1-.252.013A2.446,2.446,0,0,1,118.889,24.035Zm5.182-.688v-.675L122.1,22.8c-1.11.075-1.615.453-1.615,1.164s.63,1.148,1.5,1.148a1.735,1.735,0,0,0,.192.009A1.906,1.906,0,0,0,124.07,23.348Z" fill="#fff"/>
      <path id="Path_51" data-name="Path 51" d="M127.746,22.281c0-2.548,1.311-4.161,3.346-4.161a2.661,2.661,0,0,1,2.473,1.414h.12V15.106h1.59v11.21h-1.524V25.041h-.127a2.8,2.8,0,0,1-2.532,1.407C129.042,26.449,127.746,24.836,127.746,22.281Zm1.644,0c0,1.71.806,2.739,2.154,2.739s2.17-1.044,2.17-2.732-.838-2.739-2.17-2.739-2.154,1.037-2.154,2.732Z" fill="#fff"/>
      <path id="Path_52" data-name="Path 52" d="M141.859,22.281c-.011-.12-.018-.242-.018-.363a3.82,3.82,0,0,1,7.64,0,3.506,3.506,0,0,1-.018.363,3.67,3.67,0,0,1,.018.371,3.82,3.82,0,1,1-7.64,0A3.666,3.666,0,0,1,141.859,22.281Zm5.968,0c0-1.747-.784-2.77-2.163-2.77s-2.161,1.022-2.161,2.77.779,2.777,2.161,2.777S147.826,24.035,147.826,22.281Z" fill="#fff"/>
      <path id="Path_53" data-name="Path 53" d="M151.6,18.254h1.533v1.28h.118a2.419,2.419,0,0,1,2.406-1.436c.066-.005.131-.007.2-.007a2.634,2.634,0,0,1,2.621,2.621,2.766,2.766,0,0,1-.027.385v5.219h-1.592V21.5c0-1.3-.562-1.941-1.74-1.941l-.086,0a1.86,1.86,0,0,0-1.85,1.85,1.759,1.759,0,0,0,.011.2v4.718H151.6Z" fill="#fff"/>
      <path id="Path_54" data-name="Path 54" d="M167.435,16.247V18.29h1.747v1.341h-1.747v4.145c0,.845.347,1.216,1.141,1.216a5.753,5.753,0,0,0,.607-.038v1.325a5.22,5.22,0,0,1-.867.082c-1.769,0-2.473-.623-2.473-2.177V19.631h-1.28V18.29h1.28V16.247Z" fill="#fff"/>
      <path id="Path_55" data-name="Path 55" d="M171.356,15.106h1.576v4.442h.127a2.484,2.484,0,0,1,2.458-1.443c.048,0,.095,0,.143,0a2.668,2.668,0,0,1,2.657,2.655,2.949,2.949,0,0,1-.023.355v5.2H176.7V21.5c0-1.287-.6-1.941-1.724-1.941-.05,0-.1-.005-.154-.005a1.893,1.893,0,0,0-1.884,1.884c0,.056,0,.111.007.167v4.709h-1.59Z" fill="#fff"/>
      <path id="Path_56" data-name="Path 56" d="M187.571,24.139a3.282,3.282,0,0,1-3.493,2.333h-.1a3.679,3.679,0,0,1-3.661-3.661,3.627,3.627,0,0,1,.034-.5,3.722,3.722,0,0,1,3.685-4.211h.032c2.243,0,3.6,1.533,3.6,4.064v.555h-5.694v.09c-.005.059-.007.118-.007.179a2.14,2.14,0,0,0,2.131,2.131h.023a1.937,1.937,0,0,0,1.919-.978Zm-5.6-2.6h4.073q.005-.073.005-.145a1.955,1.955,0,0,0-1.946-1.944h-.07a2.072,2.072,0,0,0-2.063,2.063v.027Z" fill="#fff"/>
    </g>
  </g>
</svg>
