<svg xmlns="http://www.w3.org/2000/svg" xmlns:xlink="http://www.w3.org/1999/xlink" width="245.513" height="71.667" viewBox="0 0 245.513 71.667">
  <defs>
    <linearGradient id="linear-gradient" x1="-0.4" y1="0.499" x2="0.938" y2="0.499" gradientUnits="objectBoundingBox">
      <stop offset="0" stop-color="#00a0ff"/>
      <stop offset="0.01" stop-color="#00a1ff"/>
      <stop offset="0.26" stop-color="#00beff"/>
      <stop offset="0.51" stop-color="#00d2ff"/>
      <stop offset="0.76" stop-color="#00dfff"/>
      <stop offset="1" stop-color="#00e3ff"/>
    </linearGradient>
    <linearGradient id="linear-gradient-2" x1="-0.075" y1="0.5" x2="2.303" y2="0.5" gradientUnits="objectBoundingBox">
      <stop offset="0" stop-color="#ffe000"/>
      <stop offset="0.41" stop-color="#ffbd00"/>
      <stop offset="0.78" stop-color="orange"/>
      <stop offset="1" stop-color="#ff9c00"/>
    </linearGradient>
    <linearGradient id="linear-gradient-3" x1="-1.143" y1="0.5" x2="3.706" y2="0.5" gradientUnits="objectBoundingBox">
      <stop offset="0" stop-color="#ff3a44"/>
      <stop offset="1" stop-color="#c31162"/>
    </linearGradient>
    <linearGradient id="linear-gradient-4" x1="-0.422" y1="0.5" x2="0.394" y2="0.5" gradientUnits="objectBoundingBox">
      <stop offset="0" stop-color="#32a071"/>
      <stop offset="0.07" stop-color="#2da771"/>
      <stop offset="0.48" stop-color="#15cf74"/>
      <stop offset="0.8" stop-color="#06e775"/>
      <stop offset="1" stop-color="#00f076"/>
    </linearGradient>
  </defs>
  <g id="Get-It-on-Google-Play" transform="translate(-14.277 -17.916)">
    <g id="Group_64" data-name="Group 64">
      <g id="Group_40" data-name="Group 40" transform="translate(250.832 17.916)">
        <path id="Path_16" data-name="Path 16" d="M0,71.666H-223.957a8.985,8.985,0,0,1-8.958-8.958V8.958A8.985,8.985,0,0,1-223.957,0H0A8.985,8.985,0,0,1,8.958,8.958v53.75A8.985,8.985,0,0,1,0,71.666"/>
      </g>
      <g id="Group_41" data-name="Group 41" transform="translate(250.832 89.583)">
        <path id="Path_17" data-name="Path 17" d="M0-71.666H-223.957a8.985,8.985,0,0,0-8.958,8.958v53.75A8.985,8.985,0,0,0-223.957,0H0A8.985,8.985,0,0,0,8.958-8.958v-53.75A8.985,8.985,0,0,0,0-71.666m0,1.433a7.533,7.533,0,0,1,7.525,7.525v53.75A7.533,7.533,0,0,1,0-1.433H-223.957a7.533,7.533,0,0,1-7.525-7.525v-53.75a7.533,7.533,0,0,1,7.525-7.525Z" fill="#a6a6a6"/>
      </g>
      <g id="Group_42" data-name="Group 42" transform="translate(102.874 35.396)">
        <path id="Path_18" data-name="Path 18" d="M0,.873A4.853,4.853,0,0,1-1.335,4.461,5.213,5.213,0,0,1-5.284,6.052,5.4,5.4,0,0,1-9.24,4.438a5.4,5.4,0,0,1-1.629-4,5.4,5.4,0,0,1,1.629-4A5.409,5.409,0,0,1-5.284-5.18a5.527,5.527,0,0,1,2.206.451A4.445,4.445,0,0,1-1.4-3.528l-.946.946A3.631,3.631,0,0,0-5.284-3.857,4.089,4.089,0,0,0-8.22-2.664,4.115,4.115,0,0,0-9.458.437a4.111,4.111,0,0,0,1.238,3.1A4.082,4.082,0,0,0-5.284,4.73a4.077,4.077,0,0,0,3-1.2,3.38,3.38,0,0,0,.9-2.177h-3.9V.061H-.075A4.623,4.623,0,0,1,0,.873" fill="#fff"/>
      </g>
      <g id="Group_43" data-name="Group 43" transform="translate(102.874 35.396)">
        <path id="Path_19" data-name="Path 19" d="M0,.873A4.853,4.853,0,0,1-1.335,4.461,5.213,5.213,0,0,1-5.284,6.052,5.4,5.4,0,0,1-9.24,4.438a5.4,5.4,0,0,1-1.629-4,5.4,5.4,0,0,1,1.629-4A5.409,5.409,0,0,1-5.284-5.18a5.527,5.527,0,0,1,2.206.451A4.445,4.445,0,0,1-1.4-3.528l-.946.946A3.631,3.631,0,0,0-5.284-3.857,4.089,4.089,0,0,0-8.22-2.664,4.115,4.115,0,0,0-9.458.437a4.111,4.111,0,0,0,1.238,3.1A4.082,4.082,0,0,0-5.284,4.73a4.077,4.077,0,0,0,3-1.2,3.38,3.38,0,0,0,.9-2.177h-3.9V.061H-.075A4.623,4.623,0,0,1,0,.873Z" fill="none" stroke="#fff" stroke-width="0.197"/>
      </g>
      <g id="Group_44" data-name="Group 44" transform="translate(111.132 39.888)">
        <path id="Path_20" data-name="Path 20" d="M0-8.109H-4.895V-4.7H-.48V-3.41H-4.895V0H0V1.32H-6.276V-9.429H0Z" fill="#fff" stroke="#fff" stroke-width="0.197"/>
      </g>
      <g id="Group_45" data-name="Group 45" transform="translate(116.957 30.458)">
        <path id="Path_21" data-name="Path 21" d="M0,10.75H-1.381V1.32h-3V0H3V1.32H0Z" fill="#fff" stroke="#fff" stroke-width="0.197"/>
      </g>
      <g id="Group_46" data-name="Group 46" transform="translate(0 -35.833)">
        <rect id="Rectangle_7" data-name="Rectangle 7" width="1.381" height="10.75" transform="translate(125.305 66.291)" fill="#fff" stroke="#fff" stroke-width="0.197"/>
      </g>
      <g id="Group_47" data-name="Group 47" transform="translate(132.813 30.458)">
        <path id="Path_22" data-name="Path 22" d="M0,10.75H-1.381V1.32h-3V0H3V1.32H0Z" fill="#fff" stroke="#fff" stroke-width="0.197"/>
      </g>
      <g id="Group_48" data-name="Group 48" transform="translate(142.937 32.746)">
        <path id="Path_23" data-name="Path 23" d="M0,6.172A3.943,3.943,0,0,0,2.92,7.38a3.943,3.943,0,0,0,2.92-1.208,4.21,4.21,0,0,0,1.2-3.085A4.207,4.207,0,0,0,5.841,0,3.944,3.944,0,0,0,2.92-1.208,3.944,3.944,0,0,0,0,0,4.213,4.213,0,0,0-1.193,3.087,4.216,4.216,0,0,0,0,6.172m6.862.9A5.273,5.273,0,0,1,2.92,8.7a5.266,5.266,0,0,1-3.94-1.63A5.493,5.493,0,0,1-2.6,3.087,5.5,5.5,0,0,1-1.019-.9,5.272,5.272,0,0,1,2.92-2.53,5.272,5.272,0,0,1,6.855-.892,5.5,5.5,0,0,1,8.446,3.087,5.5,5.5,0,0,1,6.862,7.072" fill="#fff"/>
      </g>
      <g id="Group_49" data-name="Group 49" transform="translate(142.937 32.746)">
        <path id="Path_24" data-name="Path 24" d="M0,6.172A3.943,3.943,0,0,0,2.92,7.38a3.943,3.943,0,0,0,2.92-1.208,4.21,4.21,0,0,0,1.2-3.085A4.207,4.207,0,0,0,5.841,0,3.944,3.944,0,0,0,2.92-1.208,3.944,3.944,0,0,0,0,0,4.213,4.213,0,0,0-1.193,3.087,4.216,4.216,0,0,0,0,6.172Zm6.862.9A5.273,5.273,0,0,1,2.92,8.7a5.266,5.266,0,0,1-3.94-1.63A5.493,5.493,0,0,1-2.6,3.087,5.5,5.5,0,0,1-1.019-.9,5.272,5.272,0,0,1,2.92-2.53,5.272,5.272,0,0,1,6.855-.892,5.5,5.5,0,0,1,8.446,3.087,5.5,5.5,0,0,1,6.862,7.072Z" fill="none" stroke="#fff" stroke-width="0.197"/>
      </g>
      <g id="Group_50" data-name="Group 50" transform="translate(153.321 30.458)">
        <path id="Path_25" data-name="Path 25" d="M0,10.75V0H1.681L6.905,8.362h.061L6.905,6.291V0H8.288V10.75H6.846L1.38,1.982H1.32L1.38,4.055v6.7Z" fill="#fff" stroke="#fff" stroke-width="0.197"/>
      </g>
      <g id="Group_51" data-name="Group 51" transform="translate(0 19.929)">
        <path id="Path_26" data-name="Path 26" d="M209.509,51.738h3.343V29.34h-3.343Zm30.112-14.33-3.832,9.711h-.115L231.7,37.408h-3.6L234.06,50.98l-3.4,7.55h3.485l9.193-21.122ZM220.662,49.194c-1.1,0-2.623-.546-2.623-1.9,0-1.727,1.9-2.39,3.544-2.39a5.959,5.959,0,0,1,3.055.749,4.052,4.052,0,0,1-3.976,3.544m.4-12.275a6.274,6.274,0,0,0-5.964,3.429l2.967,1.238a3.17,3.17,0,0,1,3.055-1.643c1.729,0,3.487,1.037,3.515,2.883v.229a7.4,7.4,0,0,0-3.487-.864c-3.2,0-6.455,1.758-6.455,5.042,0,3,2.623,4.929,5.561,4.929a4.715,4.715,0,0,0,4.266-2.191h.115V51.7h3.227V43.113c0-3.976-2.967-6.194-6.8-6.194M200.4,40.135h-4.755V32.458H200.4a3.839,3.839,0,1,1,0,7.677m-.086-10.795h-8.01v22.4h3.341V43.252h4.669a6.967,6.967,0,1,0,0-13.912M156.636,49.2a4.372,4.372,0,0,1-4.243-4.588,4.408,4.408,0,0,1,4.243-4.648c2.281,0,4.069,1.964,4.069,4.648,0,2.655-1.788,4.588-4.069,4.588m3.84-10.535h-.116a5.281,5.281,0,0,0-4.012-1.7,7.627,7.627,0,0,0,0,15.24,5.191,5.191,0,0,0,4.012-1.733h.116v1.1c0,2.915-1.559,4.474-4.071,4.474a4.217,4.217,0,0,1-3.84-2.714l-2.915,1.213a7.261,7.261,0,0,0,6.755,4.5c3.926,0,7.245-2.309,7.245-7.937V37.421h-3.175Zm5.484,13.076h3.349v-22.4h-3.349Zm8.283-7.389a4.181,4.181,0,0,1,3.983-4.445,2.948,2.948,0,0,1,2.829,1.616Zm10.392-2.541a7.082,7.082,0,0,0-6.523-4.848c-3.926,0-7.186,3.087-7.186,7.62a7.456,7.456,0,0,0,7.561,7.62,7.579,7.579,0,0,0,6.351-3.377l-2.6-1.733a4.352,4.352,0,0,1-3.754,2.107,3.878,3.878,0,0,1-3.694-2.308l10.189-4.216ZM103.457,39.3V42.53h7.735a6.746,6.746,0,0,1-1.759,4.069,7.92,7.92,0,0,1-5.975,2.369,8.6,8.6,0,0,1,0-17.2,8.241,8.241,0,0,1,5.83,2.309l2.281-2.281a11.279,11.279,0,0,0-8.111-3.263,11.836,11.836,0,1,0,0,23.67,10.821,10.821,0,0,0,8.254-3.32,10.674,10.674,0,0,0,2.8-7.563,10.444,10.444,0,0,0-.174-2.019Zm19.85,9.9a4.63,4.63,0,1,1,4.3-4.617,4.408,4.408,0,0,1-4.3,4.617m0-12.237a7.62,7.62,0,1,0,7.649,7.62,7.511,7.511,0,0,0-7.649-7.62M139.993,49.2a4.63,4.63,0,1,1,4.3-4.617,4.408,4.408,0,0,1-4.3,4.617m0-12.237a7.62,7.62,0,1,0,7.649,7.62,7.511,7.511,0,0,0-7.649-7.62" fill="#fff"/>
      </g>
      <g id="Group_52" data-name="Group 52" transform="translate(56.974 33.522) rotate(135)">
        <path id="Path_27" data-name="Path 27" d="M12.927,15.9a3.627,3.627,0,0,0,2.339-1.233L43.288-13.31a3.451,3.451,0,0,0,1.191-2.381v-.17H13.1l-.383.34V15.861Z" fill="url(#linear-gradient)"/>
      </g>
      <g id="Group_53" data-name="Group 53" transform="translate(78.536 53.753) rotate(180)">
        <path id="Path_28" data-name="Path 28" d="M19.6.26V-.26L12.182-7.673l-.173.087L3.251-2.6C.737-1.171.737,1.171,3.251,2.6l8.931,5.072Z" fill="url(#linear-gradient-2)"/>
      </g>
      <g id="Group_54" data-name="Group 54" transform="translate(58.342 82.467) rotate(-116.277)">
        <path id="Path_29" data-name="Path 29" d="M15.339-16.665c-1.153.346-1.845,1.557-1.73,3.287l1.73,30.043,10.149-3.4Z" fill="url(#linear-gradient-3)"/>
      </g>
      <g id="Group_55" data-name="Group 55" transform="translate(30.991 18.232) rotate(45)">
        <path id="Path_30" data-name="Path 30" d="M13.313,5.356H44.882V-5.356L15.862,2.652a3.973,3.973,0,0,0-1.854.978A2.254,2.254,0,0,0,13.313,5.356Z" fill="url(#linear-gradient-4)"/>
      </g>
      <g id="Group_57" data-name="Group 57" opacity="0.2">
        <g id="Group_56" data-name="Group 56" transform="translate(66.343 77.018)">
          <path id="Path_31" data-name="Path 31" d="M0-15.865-26.006-1.089c-1.455.828-2.756.772-3.59.02l-.133.134.133.129v0c.835.752,2.136.808,3.59-.02L.167-15.7Z"/>
        </g>
      </g>
      <g id="Group_59" data-name="Group 59" opacity="0.12">
        <g id="Group_58" data-name="Group 58" transform="translate(36.613 73.564)">
          <path id="Path_32" data-name="Path 32" d="M0,2.256A3.588,3.588,0,0,1-.83-.262V0A3.588,3.588,0,0,0,0,2.517l.134-.133Z"/>
        </g>
      </g>
      <g id="Group_61" data-name="Group 61" opacity="0.12">
        <g id="Group_60" data-name="Group 60" transform="translate(75.276 58.995)">
          <path id="Path_33" data-name="Path 33" d="M0-2.919-8.933,2.157l.167.167L0-2.657A3.141,3.141,0,0,0,1.878-5.242,3.335,3.335,0,0,1,0-2.919"/>
        </g>
      </g>
      <g id="Group_63" data-name="Group 63" opacity="0.25">
        <g id="Group_62" data-name="Group 62" transform="translate(40.336 52.068)">
          <path id="Path_34" data-name="Path 34" d="M0-20.493,34.939-.641a3.329,3.329,0,0,1,1.878,2.326A3.14,3.14,0,0,0,34.939-.9L0-20.755C-2.5-22.177-4.553-21-4.553-18.128v.262c0-2.867,2.048-4.049,4.553-2.627" fill="#fff"/>
        </g>
      </g>
    </g>
  </g>
</svg>
